<svg id="visual" viewBox="0 0 900 450" width="900" height="450" xmlns="http://www.w3.org/2000/svg" xmlns:xlink="http://www.w3.org/1999/xlink" version="1.1"><g stroke-width="1" stroke-linejoin="bevel"><path d="M404.1 260L347.3 213L319.3 276Z" fill="#071aa3" stroke="#071aa3"></path><path d="M319.3 276L386.1 346L404.1 260Z" fill="#070021" stroke="#070021"></path><path d="M347.3 213L263.5 196L319.3 276Z" fill="#071aa3" stroke="#071aa3"></path><path d="M380.1 134L367.3 138L347.3 213Z" fill="#01145f" stroke="#01145f"></path><path d="M347.3 213L285.5 133L263.5 196Z" fill="#04114a" stroke="#04114a"></path><path d="M404.1 260L380.1 134L347.3 213Z" fill="#01145f" stroke="#01145f"></path><path d="M380.1 134L356.3 116L367.3 138Z" fill="#2417d1" stroke="#2417d1"></path><path d="M367.3 138L285.5 133L347.3 213Z" fill="#001775" stroke="#001775"></path><path d="M217.5 323L243.5 338L319.3 276Z" fill="#4600ff" stroke="#4600ff"></path><path d="M319.3 276L243.5 338L386.1 346Z" fill="#01145f" stroke="#01145f"></path><path d="M356.3 116L285.5 133L367.3 138Z" fill="#090a35" stroke="#090a35"></path><path d="M386.1 346L469.9 349L404.1 260Z" fill="#001775" stroke="#001775"></path><path d="M404.1 260L524.9 168L380.1 134Z" fill="#00198c" stroke="#00198c"></path><path d="M372.3 450L430.1 384L386.1 346Z" fill="#070021" stroke="#070021"></path><path d="M386.1 346L430.1 384L469.9 349Z" fill="#001775" stroke="#001775"></path><path d="M380.1 134L368.1 101L356.3 116Z" fill="#04114a" stroke="#04114a"></path><path d="M356.3 116L276.5 37L285.5 133Z" fill="#01145f" stroke="#01145f"></path><path d="M478.9 106L368.1 101L380.1 134Z" fill="#3510e8" stroke="#3510e8"></path><path d="M188.6 280L319.3 276L263.5 196Z" fill="#001775" stroke="#001775"></path><path d="M188.6 280L217.5 323L319.3 276Z" fill="#070021" stroke="#070021"></path><path d="M523.7 240L520.9 225L404.1 260Z" fill="#01145f" stroke="#01145f"></path><path d="M469.9 349L523.7 240L404.1 260Z" fill="#070021" stroke="#070021"></path><path d="M157.6 146L188.6 280L263.5 196Z" fill="#04114a" stroke="#04114a"></path><path d="M469.9 349L531.9 251L523.7 240Z" fill="#2417d1" stroke="#2417d1"></path><path d="M523.7 240L531.9 251L520.9 225Z" fill="#071aa3" stroke="#071aa3"></path><path d="M244.5 450L287.3 427L243.5 338Z" fill="#01145f" stroke="#01145f"></path><path d="M243.5 338L287.3 427L386.1 346Z" fill="#001775" stroke="#001775"></path><path d="M684.4 243L524.9 168L520.9 225Z" fill="#001775" stroke="#001775"></path><path d="M520.9 225L524.9 168L404.1 260Z" fill="#04114a" stroke="#04114a"></path><path d="M524.9 168L478.9 106L380.1 134Z" fill="#090a35" stroke="#090a35"></path><path d="M287.3 427L372.3 450L386.1 346Z" fill="#3510e8" stroke="#3510e8"></path><path d="M430.1 384L446.1 450L469.9 349Z" fill="#001775" stroke="#001775"></path><path d="M372.3 450L446.1 450L430.1 384Z" fill="#070021" stroke="#070021"></path><path d="M469.9 349L577.7 334L531.9 251Z" fill="#070021" stroke="#070021"></path><path d="M172.6 411L244.5 450L243.5 338Z" fill="#01145f" stroke="#01145f"></path><path d="M287.3 427L244.5 450L372.3 450Z" fill="#00198c" stroke="#00198c"></path><path d="M172.6 411L243.5 338L217.5 323Z" fill="#001775" stroke="#001775"></path><path d="M208.6 38L157.6 146L285.5 133Z" fill="#04114a" stroke="#04114a"></path><path d="M285.5 133L157.6 146L263.5 196Z" fill="#01145f" stroke="#01145f"></path><path d="M565.7 401L577.7 334L469.9 349Z" fill="#2417d1" stroke="#2417d1"></path><path d="M690.5 175L553.7 107L524.9 168Z" fill="#2417d1" stroke="#2417d1"></path><path d="M378.1 0L276.5 37L368.1 101Z" fill="#151aba" stroke="#151aba"></path><path d="M368.1 101L276.5 37L356.3 116Z" fill="#00198c" stroke="#00198c"></path><path d="M188.6 280L172.6 411L217.5 323Z" fill="#001775" stroke="#001775"></path><path d="M110.6 250L172.6 411L188.6 280Z" fill="#4600ff" stroke="#4600ff"></path><path d="M524.9 168L553.7 107L478.9 106Z" fill="#001775" stroke="#001775"></path><path d="M465.9 0L378.1 0L368.1 101Z" fill="#001775" stroke="#001775"></path><path d="M684.4 243L520.9 225L531.9 251Z" fill="#151aba" stroke="#151aba"></path><path d="M157.6 146L126.8 176L188.6 280Z" fill="#090a35" stroke="#090a35"></path><path d="M126.8 176L110.6 250L188.6 280Z" fill="#001775" stroke="#001775"></path><path d="M523.9 450L565.7 401L469.9 349Z" fill="#071aa3" stroke="#071aa3"></path><path d="M446.1 450L523.9 450L469.9 349Z" fill="#01145f" stroke="#01145f"></path><path d="M523.9 450L527.7 450L565.7 401Z" fill="#070021" stroke="#070021"></path><path d="M465.9 0L368.1 101L478.9 106Z" fill="#00198c" stroke="#00198c"></path><path d="M697.5 84L557.7 82L553.7 107Z" fill="#070021" stroke="#070021"></path><path d="M553.7 107L557.7 82L478.9 106Z" fill="#04114a" stroke="#04114a"></path><path d="M266.5 0L208.6 38L276.5 37Z" fill="#001775" stroke="#001775"></path><path d="M276.5 37L208.6 38L285.5 133Z" fill="#090a35" stroke="#090a35"></path><path d="M157.6 146L118.8 103L126.8 176Z" fill="#070021" stroke="#070021"></path><path d="M378.1 0L279.3 0L276.5 37Z" fill="#001775" stroke="#001775"></path><path d="M279.3 0L266.5 0L276.5 37Z" fill="#071aa3" stroke="#071aa3"></path><path d="M535.7 0L465.9 0L478.9 106Z" fill="#151aba" stroke="#151aba"></path><path d="M0 246L74.8 249L0 160Z" fill="#151aba" stroke="#151aba"></path><path d="M126.8 176L74.8 249L110.6 250Z" fill="#071aa3" stroke="#071aa3"></path><path d="M110.6 250L51.8 415L172.6 411Z" fill="#071aa3" stroke="#071aa3"></path><path d="M208.6 38L118.8 103L157.6 146Z" fill="#071aa3" stroke="#071aa3"></path><path d="M0 246L72.8 251L74.8 249Z" fill="#151aba" stroke="#151aba"></path><path d="M74.8 249L72.8 251L110.6 250Z" fill="#01145f" stroke="#01145f"></path><path d="M565.7 401L631.5 348L577.7 334Z" fill="#090a35" stroke="#090a35"></path><path d="M577.7 334L684.4 243L531.9 251Z" fill="#00198c" stroke="#00198c"></path><path d="M675.5 348L631.5 348L700.5 450Z" fill="#071aa3" stroke="#071aa3"></path><path d="M51.8 415L116.6 450L172.6 411Z" fill="#2417d1" stroke="#2417d1"></path><path d="M172.6 411L116.6 450L244.5 450Z" fill="#01145f" stroke="#01145f"></path><path d="M624.5 0L535.7 0L557.7 82Z" fill="#151aba" stroke="#151aba"></path><path d="M557.7 82L535.7 0L478.9 106Z" fill="#001775" stroke="#001775"></path><path d="M631.5 348L684.4 243L577.7 334Z" fill="#04114a" stroke="#04114a"></path><path d="M700.5 450L631.5 348L565.7 401Z" fill="#4600ff" stroke="#4600ff"></path><path d="M631.5 348L697.4 284L684.4 243Z" fill="#01145f" stroke="#01145f"></path><path d="M697.4 284L697.5 250L684.4 243Z" fill="#00198c" stroke="#00198c"></path><path d="M684.4 243L690.5 175L524.9 168Z" fill="#070021" stroke="#070021"></path><path d="M675.5 348L697.4 284L631.5 348Z" fill="#01145f" stroke="#01145f"></path><path d="M697.5 250L690.5 175L684.4 243Z" fill="#090a35" stroke="#090a35"></path><path d="M72.8 251L51.8 415L110.6 250Z" fill="#090a35" stroke="#090a35"></path><path d="M266.5 0L118.6 0L208.6 38Z" fill="#04114a" stroke="#04114a"></path><path d="M208.6 38L118.6 0L118.8 103Z" fill="#2417d1" stroke="#2417d1"></path><path d="M0 160L74.8 249L126.8 176Z" fill="#00198c" stroke="#00198c"></path><path d="M0 160L126.8 176L118.8 103Z" fill="#3510e8" stroke="#3510e8"></path><path d="M72.8 251L0 304L51.8 415Z" fill="#4600ff" stroke="#4600ff"></path><path d="M0 246L0 304L72.8 251Z" fill="#04114a" stroke="#04114a"></path><path d="M697.5 84L624.5 0L557.7 82Z" fill="#04114a" stroke="#04114a"></path><path d="M118.6 0L93.8 0L118.8 103Z" fill="#090a35" stroke="#090a35"></path><path d="M0 32L0 160L118.8 103Z" fill="#151aba" stroke="#151aba"></path><path d="M0 304L0 369L51.8 415Z" fill="#04114a" stroke="#04114a"></path><path d="M740.4 147L697.5 84L690.5 175Z" fill="#04114a" stroke="#04114a"></path><path d="M690.5 175L697.5 84L553.7 107Z" fill="#151aba" stroke="#151aba"></path><path d="M0 450L31.8 450L51.8 415Z" fill="#01145f" stroke="#01145f"></path><path d="M51.8 415L31.8 450L116.6 450Z" fill="#071aa3" stroke="#071aa3"></path><path d="M706.4 450L735.4 326L675.5 348Z" fill="#01145f" stroke="#01145f"></path><path d="M675.5 348L735.4 326L697.4 284Z" fill="#001775" stroke="#001775"></path><path d="M697.4 284L794.2 238L697.5 250Z" fill="#001775" stroke="#001775"></path><path d="M794.2 238L740.4 147L690.5 175Z" fill="#01145f" stroke="#01145f"></path><path d="M527.7 450L700.5 450L565.7 401Z" fill="#01145f" stroke="#01145f"></path><path d="M794.2 238L690.5 175L697.5 250Z" fill="#01145f" stroke="#01145f"></path><path d="M700.5 450L706.4 450L675.5 348Z" fill="#071aa3" stroke="#071aa3"></path><path d="M0 369L0 450L51.8 415Z" fill="#04114a" stroke="#04114a"></path><path d="M697.5 84L688.4 0L624.5 0Z" fill="#3510e8" stroke="#3510e8"></path><path d="M748.4 75L688.4 0L697.5 84Z" fill="#071aa3" stroke="#071aa3"></path><path d="M93.8 0L0 32L118.8 103Z" fill="#151aba" stroke="#151aba"></path><path d="M770.2 122L748.4 75L740.4 147Z" fill="#01145f" stroke="#01145f"></path><path d="M740.4 147L748.4 75L697.5 84Z" fill="#00198c" stroke="#00198c"></path><path d="M794.2 238L770.2 122L740.4 147Z" fill="#070021" stroke="#070021"></path><path d="M735.4 326L794.2 238L697.4 284Z" fill="#2417d1" stroke="#2417d1"></path><path d="M827.2 329L794.2 238L735.4 326Z" fill="#070021" stroke="#070021"></path><path d="M93.8 0L0 0L0 32Z" fill="#04114a" stroke="#04114a"></path><path d="M706.4 450L770.2 450L735.4 326Z" fill="#3510e8" stroke="#3510e8"></path><path d="M770.2 450L804.2 371L735.4 326Z" fill="#4600ff" stroke="#4600ff"></path><path d="M900 271L827.2 329L900 332Z" fill="#00198c" stroke="#00198c"></path><path d="M804.2 371L827.2 329L735.4 326Z" fill="#001775" stroke="#001775"></path><path d="M900 88L840.2 26L770.2 122Z" fill="#4600ff" stroke="#4600ff"></path><path d="M900 148L770.2 122L794.2 238Z" fill="#00198c" stroke="#00198c"></path><path d="M770.2 122L840.2 26L748.4 75Z" fill="#04114a" stroke="#04114a"></path><path d="M748.4 75L840.2 26L688.4 0Z" fill="#071aa3" stroke="#071aa3"></path><path d="M900 332L827.2 329L900 339Z" fill="#01145f" stroke="#01145f"></path><path d="M827.2 329L900 271L794.2 238Z" fill="#090a35" stroke="#090a35"></path><path d="M900 339L827.2 329L804.2 371Z" fill="#04114a" stroke="#04114a"></path><path d="M900 450L900 339L804.2 371Z" fill="#090a35" stroke="#090a35"></path><path d="M900 271L900 148L794.2 238Z" fill="#01145f" stroke="#01145f"></path><path d="M900 0L858.2 0L840.2 26Z" fill="#090a35" stroke="#090a35"></path><path d="M840.2 26L858.2 0L688.4 0Z" fill="#090a35" stroke="#090a35"></path><path d="M900 148L900 88L770.2 122Z" fill="#090a35" stroke="#090a35"></path><path d="M770.2 450L900 450L804.2 371Z" fill="#01145f" stroke="#01145f"></path><path d="M900 88L900 0L840.2 26Z" fill="#071aa3" stroke="#071aa3"></path></g></svg>